<mxfile host="app.diagrams.net" modified="2023-02-02T10:08:31.055Z" agent="5.0 (Windows NT 10.0; Win64; x64) AppleWebKit/537.36 (KHTML, like Gecko) Chrome/109.0.0.0 Safari/537.36" etag="JcNRRcCYa3pXoWlOF2WJ" version="20.8.10" type="github">
  <diagram id="C5RBs43oDa-KdzZeNtuy" name="Page-1">
    <mxGraphModel dx="1050" dy="1023" grid="0" gridSize="10" guides="1" tooltips="1" connect="1" arrows="1" fold="1" page="0" pageScale="1" pageWidth="1169" pageHeight="827" math="0" shadow="0">
      <root>
        <mxCell id="WIyWlLk6GJQsqaUBKTNV-0" />
        <mxCell id="WIyWlLk6GJQsqaUBKTNV-1" parent="WIyWlLk6GJQsqaUBKTNV-0" />
        <mxCell id="DJTjRxVEmAC6avky2q_E-19" value="创建WebGL程序" style="swimlane;rounded=1;shadow=0;glass=0;strokeWidth=1;labelBackgroundColor=none;" parent="WIyWlLk6GJQsqaUBKTNV-1" vertex="1">
          <mxGeometry x="350" y="40" width="749" height="370" as="geometry">
            <mxRectangle x="461" y="52" width="111" height="23" as="alternateBounds" />
          </mxGeometry>
        </mxCell>
        <mxCell id="DJTjRxVEmAC6avky2q_E-25" value="&lt;span&gt;创建着色器程序（代码片段）&lt;/span&gt;" style="rounded=1;whiteSpace=wrap;html=1;shadow=0;glass=0;strokeWidth=1;fillColor=none;labelBackgroundColor=none;" parent="DJTjRxVEmAC6avky2q_E-19" vertex="1">
          <mxGeometry x="36" y="33" width="308" height="57" as="geometry" />
        </mxCell>
        <mxCell id="DJTjRxVEmAC6avky2q_E-26" value="&lt;span&gt;创建着色器容器createShader&lt;/span&gt;" style="rounded=1;whiteSpace=wrap;html=1;labelBackgroundColor=none;" parent="DJTjRxVEmAC6avky2q_E-19" vertex="1">
          <mxGeometry x="35" y="115" width="309" height="60" as="geometry" />
        </mxCell>
        <mxCell id="DJTjRxVEmAC6avky2q_E-30" value="将创建的着色器程序添加到着色器容器中&lt;span&gt;shaderSource&lt;/span&gt;" style="rounded=1;whiteSpace=wrap;html=1;labelBackgroundColor=none;" parent="DJTjRxVEmAC6avky2q_E-19" vertex="1">
          <mxGeometry x="36" y="204" width="310" height="60" as="geometry" />
        </mxCell>
        <mxCell id="DJTjRxVEmAC6avky2q_E-46" value="" style="edgeStyle=orthogonalEdgeStyle;rounded=1;orthogonalLoop=1;jettySize=auto;html=1;labelBackgroundColor=none;fontColor=default;" parent="DJTjRxVEmAC6avky2q_E-19" source="DJTjRxVEmAC6avky2q_E-31" target="DJTjRxVEmAC6avky2q_E-32" edge="1">
          <mxGeometry relative="1" as="geometry" />
        </mxCell>
        <mxCell id="DJTjRxVEmAC6avky2q_E-31" value="编译已添加的后的着色器容器" style="rounded=1;whiteSpace=wrap;html=1;labelBackgroundColor=none;" parent="DJTjRxVEmAC6avky2q_E-19" vertex="1">
          <mxGeometry x="36" y="290" width="314" height="60" as="geometry" />
        </mxCell>
        <mxCell id="DJTjRxVEmAC6avky2q_E-32" value="创建WebGL程序createProgram" style="rounded=1;whiteSpace=wrap;html=1;labelBackgroundColor=none;" parent="DJTjRxVEmAC6avky2q_E-19" vertex="1">
          <mxGeometry x="389" y="290" width="331" height="60" as="geometry" />
        </mxCell>
        <mxCell id="DJTjRxVEmAC6avky2q_E-36" value="将之前两个shader容器关联到WebGL程序中attachShader" style="rounded=1;whiteSpace=wrap;html=1;labelBackgroundColor=none;" parent="DJTjRxVEmAC6avky2q_E-19" vertex="1">
          <mxGeometry x="390" y="200" width="330" height="64" as="geometry" />
        </mxCell>
        <mxCell id="DJTjRxVEmAC6avky2q_E-41" value="" style="endArrow=classic;html=1;rounded=1;exitX=0.5;exitY=1;exitDx=0;exitDy=0;entryX=0.5;entryY=0;entryDx=0;entryDy=0;labelBackgroundColor=none;fontColor=default;" parent="DJTjRxVEmAC6avky2q_E-19" source="DJTjRxVEmAC6avky2q_E-25" target="DJTjRxVEmAC6avky2q_E-26" edge="1">
          <mxGeometry width="50" height="50" relative="1" as="geometry">
            <mxPoint x="429" y="170" as="sourcePoint" />
            <mxPoint x="479" y="120" as="targetPoint" />
          </mxGeometry>
        </mxCell>
        <mxCell id="DJTjRxVEmAC6avky2q_E-44" value="" style="endArrow=classic;html=1;rounded=1;exitX=0.5;exitY=1;exitDx=0;exitDy=0;labelBackgroundColor=none;fontColor=default;" parent="DJTjRxVEmAC6avky2q_E-19" source="DJTjRxVEmAC6avky2q_E-30" target="DJTjRxVEmAC6avky2q_E-31" edge="1">
          <mxGeometry width="50" height="50" relative="1" as="geometry">
            <mxPoint x="429" y="170" as="sourcePoint" />
            <mxPoint x="479" y="120" as="targetPoint" />
          </mxGeometry>
        </mxCell>
        <mxCell id="DJTjRxVEmAC6avky2q_E-47" value="创建的WebGL程序连接到WebGL上下文对象linkProgram" style="rounded=1;whiteSpace=wrap;html=1;labelBackgroundColor=none;" parent="DJTjRxVEmAC6avky2q_E-19" vertex="1">
          <mxGeometry x="389" y="115" width="331" height="60" as="geometry" />
        </mxCell>
        <mxCell id="DJTjRxVEmAC6avky2q_E-49" value="通过useProgram选择启用这个WebGLProgram对象" style="rounded=1;whiteSpace=wrap;html=1;labelBackgroundColor=none;" parent="DJTjRxVEmAC6avky2q_E-19" vertex="1">
          <mxGeometry x="390" y="33" width="331" height="57" as="geometry" />
        </mxCell>
        <mxCell id="DJTjRxVEmAC6avky2q_E-51" value="" style="endArrow=classic;html=1;exitX=0.5;exitY=0;exitDx=0;exitDy=0;entryX=0.5;entryY=1;entryDx=0;entryDy=0;rounded=1;labelBackgroundColor=none;fontColor=default;" parent="DJTjRxVEmAC6avky2q_E-19" source="DJTjRxVEmAC6avky2q_E-32" target="DJTjRxVEmAC6avky2q_E-36" edge="1">
          <mxGeometry width="50" height="50" relative="1" as="geometry">
            <mxPoint x="529" y="150" as="sourcePoint" />
            <mxPoint x="579" y="100" as="targetPoint" />
          </mxGeometry>
        </mxCell>
        <mxCell id="DJTjRxVEmAC6avky2q_E-52" value="" style="endArrow=classic;html=1;exitX=0.5;exitY=0;exitDx=0;exitDy=0;entryX=0.5;entryY=1;entryDx=0;entryDy=0;rounded=1;labelBackgroundColor=none;fontColor=default;" parent="DJTjRxVEmAC6avky2q_E-19" source="DJTjRxVEmAC6avky2q_E-36" target="DJTjRxVEmAC6avky2q_E-47" edge="1">
          <mxGeometry width="50" height="50" relative="1" as="geometry">
            <mxPoint x="529" y="150" as="sourcePoint" />
            <mxPoint x="579" y="100" as="targetPoint" />
          </mxGeometry>
        </mxCell>
        <mxCell id="DJTjRxVEmAC6avky2q_E-53" value="" style="endArrow=classic;html=1;exitX=0.5;exitY=0;exitDx=0;exitDy=0;entryX=0.5;entryY=1;entryDx=0;entryDy=0;rounded=1;labelBackgroundColor=none;fontColor=default;" parent="DJTjRxVEmAC6avky2q_E-19" source="DJTjRxVEmAC6avky2q_E-47" target="DJTjRxVEmAC6avky2q_E-49" edge="1">
          <mxGeometry width="50" height="50" relative="1" as="geometry">
            <mxPoint x="529" y="150" as="sourcePoint" />
            <mxPoint x="579" y="100" as="targetPoint" />
          </mxGeometry>
        </mxCell>
        <mxCell id="DJTjRxVEmAC6avky2q_E-42" value="" style="endArrow=classic;html=1;rounded=1;exitX=0.5;exitY=1;exitDx=0;exitDy=0;entryX=0.5;entryY=0;entryDx=0;entryDy=0;labelBackgroundColor=none;fontColor=default;" parent="DJTjRxVEmAC6avky2q_E-19" source="DJTjRxVEmAC6avky2q_E-26" target="DJTjRxVEmAC6avky2q_E-30" edge="1">
          <mxGeometry width="50" height="50" relative="1" as="geometry">
            <mxPoint x="450" y="280" as="sourcePoint" />
            <mxPoint x="211" y="310" as="targetPoint" />
          </mxGeometry>
        </mxCell>
        <mxCell id="DJTjRxVEmAC6avky2q_E-27" value="创建WebGL上下文" style="swimlane;rounded=1;labelBackgroundColor=none;" parent="WIyWlLk6GJQsqaUBKTNV-1" vertex="1">
          <mxGeometry x="540" y="-184" width="390" height="184" as="geometry" />
        </mxCell>
        <mxCell id="DJTjRxVEmAC6avky2q_E-28" value="&lt;span style=&quot;text-align: left&quot;&gt;document.querySelector(&#39;canvas&#39;);&lt;/span&gt;" style="rounded=1;whiteSpace=wrap;html=1;labelBackgroundColor=none;" parent="DJTjRxVEmAC6avky2q_E-27" vertex="1">
          <mxGeometry x="83.5" y="37" width="223" height="43" as="geometry" />
        </mxCell>
        <mxCell id="DJTjRxVEmAC6avky2q_E-29" value="&lt;span style=&quot;text-align: left&quot;&gt;canvas.getContext(&#39;webgl&#39;);&lt;/span&gt;" style="rounded=1;whiteSpace=wrap;html=1;labelBackgroundColor=none;" parent="DJTjRxVEmAC6avky2q_E-27" vertex="1">
          <mxGeometry x="81.5" y="106" width="227" height="39" as="geometry" />
        </mxCell>
        <mxCell id="DJTjRxVEmAC6avky2q_E-59" value="" style="endArrow=classic;html=1;exitX=0.5;exitY=1;exitDx=0;exitDy=0;entryX=0.5;entryY=0;entryDx=0;entryDy=0;rounded=1;labelBackgroundColor=none;fontColor=default;" parent="DJTjRxVEmAC6avky2q_E-27" source="DJTjRxVEmAC6avky2q_E-28" target="DJTjRxVEmAC6avky2q_E-29" edge="1">
          <mxGeometry width="50" height="50" relative="1" as="geometry">
            <mxPoint x="410" y="370" as="sourcePoint" />
            <mxPoint x="460" y="320" as="targetPoint" />
          </mxGeometry>
        </mxCell>
        <mxCell id="DJTjRxVEmAC6avky2q_E-73" value="将缓存区数据读取到GPU(将缓存对象的数据绑定给顶点着色器的position变量)" style="swimlane;rounded=1;labelBackgroundColor=none;" parent="WIyWlLk6GJQsqaUBKTNV-1" vertex="1">
          <mxGeometry x="1154" y="249" width="490" height="330" as="geometry" />
        </mxCell>
        <mxCell id="DJTjRxVEmAC6avky2q_E-86" style="edgeStyle=orthogonalEdgeStyle;orthogonalLoop=1;jettySize=auto;html=1;fontSize=13;labelBackgroundColor=none;fontColor=default;" parent="DJTjRxVEmAC6avky2q_E-73" source="DJTjRxVEmAC6avky2q_E-74" target="DJTjRxVEmAC6avky2q_E-75" edge="1">
          <mxGeometry relative="1" as="geometry" />
        </mxCell>
        <mxCell id="DJTjRxVEmAC6avky2q_E-74" value="获取顶点着色器中的attribute变量的地址getAttribLocation" style="whiteSpace=wrap;html=1;rounded=1;labelBackgroundColor=none;" parent="DJTjRxVEmAC6avky2q_E-73" vertex="1">
          <mxGeometry x="73" y="60" width="340" height="60" as="geometry" />
        </mxCell>
        <mxCell id="DJTjRxVEmAC6avky2q_E-76" value="激活这个变量enableVertexAttribArray" style="whiteSpace=wrap;html=1;fontSize=13;rounded=1;labelBackgroundColor=none;" parent="DJTjRxVEmAC6avky2q_E-73" vertex="1">
          <mxGeometry x="66" y="240" width="358" height="60" as="geometry" />
        </mxCell>
        <mxCell id="DJTjRxVEmAC6avky2q_E-75" value="&lt;span style=&quot;font-size: 13px&quot;&gt;将缓存区对象的值赋给存储attribute变量的js变量&lt;/span&gt;" style="whiteSpace=wrap;html=1;fontSize=17;rounded=1;labelBackgroundColor=none;" parent="DJTjRxVEmAC6avky2q_E-73" vertex="1">
          <mxGeometry x="66" y="150" width="354" height="60" as="geometry" />
        </mxCell>
        <mxCell id="DJTjRxVEmAC6avky2q_E-90" value="" style="endArrow=classic;html=1;fontSize=13;exitX=0.5;exitY=1;exitDx=0;exitDy=0;labelBackgroundColor=none;fontColor=default;" parent="DJTjRxVEmAC6avky2q_E-73" source="DJTjRxVEmAC6avky2q_E-75" edge="1">
          <mxGeometry width="50" height="50" relative="1" as="geometry">
            <mxPoint x="-64" y="133" as="sourcePoint" />
            <mxPoint x="243" y="240" as="targetPoint" />
          </mxGeometry>
        </mxCell>
        <mxCell id="DJTjRxVEmAC6avky2q_E-77" value="执行着色器程序完成绘制" style="swimlane;fontSize=13;rounded=1;labelBackgroundColor=none;" parent="WIyWlLk6GJQsqaUBKTNV-1" vertex="1">
          <mxGeometry x="441" y="437" width="543" height="234" as="geometry" />
        </mxCell>
        <mxCell id="DJTjRxVEmAC6avky2q_E-94" value="" style="edgeStyle=orthogonalEdgeStyle;orthogonalLoop=1;jettySize=auto;html=1;fontSize=13;labelBackgroundColor=none;fontColor=default;" parent="DJTjRxVEmAC6avky2q_E-77" source="DJTjRxVEmAC6avky2q_E-79" target="DJTjRxVEmAC6avky2q_E-82" edge="1">
          <mxGeometry relative="1" as="geometry" />
        </mxCell>
        <mxCell id="DJTjRxVEmAC6avky2q_E-79" value="将当前画布内容清除clear" style="whiteSpace=wrap;html=1;fontSize=13;rounded=1;labelBackgroundColor=none;" parent="DJTjRxVEmAC6avky2q_E-77" vertex="1">
          <mxGeometry x="156.5" y="45" width="230" height="70" as="geometry" />
        </mxCell>
        <mxCell id="DJTjRxVEmAC6avky2q_E-82" value="绘制drawArrays" style="whiteSpace=wrap;html=1;fontSize=13;rounded=1;labelBackgroundColor=none;" parent="DJTjRxVEmAC6avky2q_E-77" vertex="1">
          <mxGeometry x="156.5" y="146" width="230" height="70" as="geometry" />
        </mxCell>
        <mxCell id="DJTjRxVEmAC6avky2q_E-50" value="将数据存入缓存区" style="swimlane;rounded=1;labelBackgroundColor=none;" parent="WIyWlLk6GJQsqaUBKTNV-1" vertex="1">
          <mxGeometry x="1181" y="-208" width="463" height="393" as="geometry" />
        </mxCell>
        <mxCell id="DJTjRxVEmAC6avky2q_E-69" style="edgeStyle=orthogonalEdgeStyle;orthogonalLoop=1;jettySize=auto;html=1;entryX=0.5;entryY=0;entryDx=0;entryDy=0;rounded=1;labelBackgroundColor=none;fontColor=default;" parent="DJTjRxVEmAC6avky2q_E-50" source="DJTjRxVEmAC6avky2q_E-62" target="DJTjRxVEmAC6avky2q_E-63" edge="1">
          <mxGeometry relative="1" as="geometry" />
        </mxCell>
        <mxCell id="DJTjRxVEmAC6avky2q_E-62" value="定义或导入数据" style="rounded=1;whiteSpace=wrap;html=1;labelBackgroundColor=none;" parent="DJTjRxVEmAC6avky2q_E-50" vertex="1">
          <mxGeometry x="90" y="60" width="230" height="50" as="geometry" />
        </mxCell>
        <mxCell id="DJTjRxVEmAC6avky2q_E-70" style="edgeStyle=orthogonalEdgeStyle;orthogonalLoop=1;jettySize=auto;html=1;entryX=0.5;entryY=0;entryDx=0;entryDy=0;rounded=1;labelBackgroundColor=none;fontColor=default;" parent="DJTjRxVEmAC6avky2q_E-50" source="DJTjRxVEmAC6avky2q_E-63" target="DJTjRxVEmAC6avky2q_E-64" edge="1">
          <mxGeometry relative="1" as="geometry" />
        </mxCell>
        <mxCell id="DJTjRxVEmAC6avky2q_E-63" value="创建一个缓存对象createBuffer()" style="rounded=1;whiteSpace=wrap;html=1;labelBackgroundColor=none;" parent="DJTjRxVEmAC6avky2q_E-50" vertex="1">
          <mxGeometry x="90" y="140" width="230" height="50" as="geometry" />
        </mxCell>
        <mxCell id="DJTjRxVEmAC6avky2q_E-72" style="edgeStyle=orthogonalEdgeStyle;orthogonalLoop=1;jettySize=auto;html=1;exitX=0.5;exitY=1;exitDx=0;exitDy=0;entryX=0.5;entryY=0;entryDx=0;entryDy=0;rounded=1;labelBackgroundColor=none;fontColor=default;" parent="DJTjRxVEmAC6avky2q_E-50" source="DJTjRxVEmAC6avky2q_E-64" target="DJTjRxVEmAC6avky2q_E-66" edge="1">
          <mxGeometry relative="1" as="geometry" />
        </mxCell>
        <mxCell id="DJTjRxVEmAC6avky2q_E-64" value="将上一步创建的缓存区对象绑定到webgl&lt;br&gt;系统中已经存在的target上&lt;br&gt;gl.bindBuffer(target,bufferObject)" style="rounded=1;whiteSpace=wrap;html=1;labelBackgroundColor=none;" parent="DJTjRxVEmAC6avky2q_E-50" vertex="1">
          <mxGeometry x="90" y="221" width="230" height="46" as="geometry" />
        </mxCell>
        <mxCell id="DJTjRxVEmAC6avky2q_E-66" value="向绑定在target上的缓存区对象中写入数据&lt;br&gt;gl.bufferData(target,data,usage)" style="rounded=1;whiteSpace=wrap;html=1;labelBackgroundColor=none;" parent="DJTjRxVEmAC6avky2q_E-50" vertex="1">
          <mxGeometry x="90" y="300" width="230" height="50" as="geometry" />
        </mxCell>
        <mxCell id="DJTjRxVEmAC6avky2q_E-83" style="edgeStyle=orthogonalEdgeStyle;orthogonalLoop=1;jettySize=auto;html=1;entryX=0.5;entryY=0;entryDx=0;entryDy=0;fontSize=13;labelBackgroundColor=none;fontColor=default;" parent="WIyWlLk6GJQsqaUBKTNV-1" source="DJTjRxVEmAC6avky2q_E-49" target="DJTjRxVEmAC6avky2q_E-62" edge="1">
          <mxGeometry relative="1" as="geometry">
            <Array as="points">
              <mxPoint x="1141" y="102" />
              <mxPoint x="1141" y="-170" />
              <mxPoint x="1386" y="-170" />
            </Array>
          </mxGeometry>
        </mxCell>
        <mxCell id="DJTjRxVEmAC6avky2q_E-84" style="edgeStyle=orthogonalEdgeStyle;orthogonalLoop=1;jettySize=auto;html=1;entryX=1;entryY=0.5;entryDx=0;entryDy=0;fontSize=13;labelBackgroundColor=none;fontColor=default;" parent="WIyWlLk6GJQsqaUBKTNV-1" source="DJTjRxVEmAC6avky2q_E-66" target="DJTjRxVEmAC6avky2q_E-74" edge="1">
          <mxGeometry relative="1" as="geometry">
            <Array as="points">
              <mxPoint x="1386" y="226" />
              <mxPoint x="1730" y="226" />
              <mxPoint x="1730" y="339" />
            </Array>
          </mxGeometry>
        </mxCell>
        <mxCell id="DJTjRxVEmAC6avky2q_E-85" style="edgeStyle=orthogonalEdgeStyle;orthogonalLoop=1;jettySize=auto;html=1;entryX=0;entryY=0.5;entryDx=0;entryDy=0;fontSize=13;labelBackgroundColor=none;fontColor=default;" parent="WIyWlLk6GJQsqaUBKTNV-1" source="DJTjRxVEmAC6avky2q_E-29" target="DJTjRxVEmAC6avky2q_E-25" edge="1">
          <mxGeometry relative="1" as="geometry">
            <Array as="points">
              <mxPoint x="735" y="17" />
              <mxPoint x="333" y="17" />
              <mxPoint x="333" y="102" />
            </Array>
          </mxGeometry>
        </mxCell>
        <mxCell id="DJTjRxVEmAC6avky2q_E-93" value="" style="endArrow=classic;html=1;fontSize=13;exitX=0;exitY=0.5;exitDx=0;exitDy=0;entryX=1;entryY=0.5;entryDx=0;entryDy=0;labelBackgroundColor=none;fontColor=default;" parent="WIyWlLk6GJQsqaUBKTNV-1" source="DJTjRxVEmAC6avky2q_E-76" target="DJTjRxVEmAC6avky2q_E-79" edge="1">
          <mxGeometry width="50" height="50" relative="1" as="geometry">
            <mxPoint x="900" y="428" as="sourcePoint" />
            <mxPoint x="950" y="378" as="targetPoint" />
          </mxGeometry>
        </mxCell>
      </root>
    </mxGraphModel>
  </diagram>
</mxfile>
